<svg width="21" height="20" viewBox="0 0 21 20" fill="none" xmlns="http://www.w3.org/2000/svg">
<path d="M17.9184 10.4452C17.9996 10.2325 18.0208 9.99846 17.9794 9.77267C17.938 9.54689 17.8359 9.33951 17.6859 9.17677L13.3999 4.52201C13.3011 4.41086 13.1829 4.32221 13.0521 4.26122C12.9214 4.20024 12.7808 4.16813 12.6385 4.16679C12.4963 4.16545 12.3552 4.19489 12.2235 4.2534C12.0918 4.31192 11.9722 4.39832 11.8716 4.50758C11.771 4.61685 11.6914 4.74678 11.6375 4.88979C11.5836 5.0328 11.5565 5.18604 11.5578 5.34055C11.559 5.49506 11.5886 5.64776 11.6447 5.78974C11.7009 5.93171 11.7825 6.06012 11.8848 6.16747L14.3429 8.83697H4.0715C3.78732 8.83697 3.51478 8.95958 3.31383 9.17781C3.11289 9.39604 3 9.69203 3 10.0007C3 10.3093 3.11289 10.6053 3.31383 10.8235C3.51478 11.0418 3.78732 11.1644 4.0715 11.1644H14.3429L11.8859 13.8327C11.7836 13.94 11.702 14.0684 11.6458 14.2104C11.5896 14.3524 11.5601 14.5051 11.5588 14.6596C11.5576 14.8141 11.5847 14.9674 11.6386 15.1104C11.6925 15.2534 11.772 15.3833 11.8726 15.4926C11.9732 15.6018 12.0929 15.6882 12.2246 15.7468C12.3562 15.8053 12.4973 15.8347 12.6396 15.8334C12.7819 15.832 12.9225 15.7999 13.0532 15.7389C13.1839 15.6779 13.3022 15.5893 13.401 15.4782L17.687 10.8234C17.7863 10.7151 17.8649 10.5865 17.9184 10.4452V10.4452Z" fill="#C81E1E"></path>
</svg>
