<svg width="21" height="20" viewBox="0 0 21 20" fill="none" xmlns="http://www.w3.org/2000/svg">
<path d="M17.0457 11.0606L18.8001 5.22797C18.8373 5.10397 18.8437 4.97346 18.8188 4.84672C18.7938 4.71997 18.7383 4.60045 18.6565 4.49756C18.5747 4.39466 18.4689 4.3112 18.3474 4.25375C18.2259 4.19629 18.092 4.1664 17.9562 4.16644H6.35114L5.82922 2.2875C5.77983 2.10959 5.66983 1.95221 5.51639 1.83992C5.36294 1.72763 5.17469 1.66674 4.98099 1.66675H3.04417C2.81153 1.66675 2.58842 1.75453 2.42391 1.9108C2.25941 2.06706 2.16699 2.27899 2.16699 2.49998C2.16699 2.72096 2.25941 2.9329 2.42391 3.08916C2.58842 3.24542 2.81153 3.33321 3.04417 3.33321H4.30556L4.83187 5.21214V5.22047V5.22797L6.58623 11.0606L7.2406 13.5486C6.8074 13.7311 6.43409 14.0212 6.16011 14.3885C5.88614 14.7558 5.72165 15.1865 5.68402 15.6353C5.6464 16.084 5.73703 16.534 5.94635 16.9379C6.15567 17.3417 6.4759 17.6844 6.87324 17.9297C7.27059 18.175 7.73029 18.3138 8.2038 18.3315C8.67732 18.3492 9.14708 18.2451 9.56348 18.0302C9.97988 17.8153 10.3275 17.4976 10.5695 17.1106C10.8116 16.7237 10.9392 16.2818 10.9388 15.8316C10.9359 15.5471 10.8813 15.2653 10.7774 14.9984H12.8546C12.7507 15.2653 12.6961 15.5471 12.6932 15.8316C12.6932 16.326 12.8475 16.8093 13.1367 17.2204C13.4258 17.6315 13.8368 17.9519 14.3177 18.141C14.7985 18.3302 15.3276 18.3797 15.8381 18.2833C16.3486 18.1868 16.8175 17.9488 17.1855 17.5992C17.5535 17.2496 17.8041 16.8042 17.9057 16.3193C18.0072 15.8344 17.9551 15.3318 17.7559 14.8751C17.5568 14.4183 17.2195 14.0279 16.7867 13.7532C16.354 13.4786 15.8452 13.332 15.3247 13.332H8.99146L8.55287 11.6655H16.2019C16.3927 11.6655 16.5782 11.6065 16.7305 11.4974C16.8828 11.3882 16.9935 11.2349 17.0457 11.0606ZM15.3247 14.9984C15.4982 14.9984 15.6678 15.0473 15.812 15.1388C15.9563 15.2304 16.0687 15.3605 16.1351 15.5128C16.2015 15.665 16.2189 15.8326 16.185 15.9942C16.1512 16.1558 16.0676 16.3043 15.945 16.4208C15.8223 16.5374 15.666 16.6167 15.4958 16.6489C15.3257 16.681 15.1493 16.6645 14.989 16.6014C14.8287 16.5384 14.6917 16.4316 14.5954 16.2946C14.499 16.1575 14.4475 15.9964 14.4475 15.8316C14.4475 15.6107 14.5399 15.3987 14.7044 15.2425C14.8689 15.0862 15.0921 14.9984 15.3247 14.9984ZM9.18444 15.8316C9.18444 15.9964 9.13299 16.1575 9.03661 16.2946C8.94022 16.4316 8.80322 16.5384 8.64294 16.6014C8.48265 16.6645 8.30628 16.681 8.13613 16.6489C7.96597 16.6167 7.80967 16.5374 7.687 16.4208C7.56432 16.3043 7.48078 16.1558 7.44693 15.9942C7.41308 15.8326 7.43046 15.665 7.49685 15.5128C7.56324 15.3605 7.67567 15.2304 7.81992 15.1388C7.96417 15.0473 8.13377 14.9984 8.30726 14.9984C8.5399 14.9984 8.76301 15.0862 8.92752 15.2425C9.09202 15.3987 9.18444 15.6107 9.18444 15.8316ZM13.5703 8.33258H12.6932V9.16581C12.6932 9.3868 12.6007 9.59873 12.4362 9.75499C12.2717 9.91125 12.0486 9.99904 11.816 9.99904C11.5833 9.99904 11.3602 9.91125 11.1957 9.75499C11.0312 9.59873 10.9388 9.3868 10.9388 9.16581V8.33258H10.0616C9.82897 8.33258 9.60586 8.24479 9.44136 8.08853C9.27685 7.93227 9.18444 7.72034 9.18444 7.49935C9.18444 7.27836 9.27685 7.06643 9.44136 6.91017C9.60586 6.75391 9.82897 6.66612 10.0616 6.66612H10.9388V5.83289C10.9388 5.61191 11.0312 5.39997 11.1957 5.24371C11.3602 5.08745 11.5833 4.99966 11.816 4.99966C12.0486 4.99966 12.2717 5.08745 12.4362 5.24371C12.6007 5.39997 12.6932 5.61191 12.6932 5.83289V6.66612H13.5703C13.803 6.66612 14.0261 6.75391 14.1906 6.91017C14.3551 7.06643 14.4475 7.27836 14.4475 7.49935C14.4475 7.72034 14.3551 7.93227 14.1906 8.08853C14.0261 8.24479 13.803 8.33258 13.5703 8.33258Z" fill="#C81E1E"></path>
</svg>
