<svg width="30" height="30" viewBox="0 0 30 30" fill="none" xmlns="http://www.w3.org/2000/svg">
<circle cx="15" cy="15" r="15" fill="#EBF2FA"></circle>
<path d="M21.806 12.1974C20.9771 8.55006 17.7955 6.90796 15.0007 6.90796C15.0007 6.90796 15.0007 6.90796 14.9928 6.90796C12.206 6.90796 9.01653 8.54217 8.18759 12.1895C7.2639 16.2632 9.75864 19.7132 12.0165 21.8843C12.8534 22.6895 13.9271 23.0922 15.0007 23.0922C16.0744 23.0922 17.1481 22.6895 17.9771 21.8843C20.235 19.7132 22.7297 16.2711 21.806 12.1974ZM15.0007 16.1527C13.6271 16.1527 12.5139 15.0395 12.5139 13.6659C12.5139 12.2922 13.6271 11.179 15.0007 11.179C16.3744 11.179 17.4876 12.2922 17.4876 13.6659C17.4876 15.0395 16.3744 16.1527 15.0007 16.1527Z" fill="#377CC8"></path>
</svg>
