<svg width="16" height="16" viewBox="0 0 16 16" fill="none" xmlns="http://www.w3.org/2000/svg">
<path opacity="0.5" d="M12.6667 9.5C12.9428 9.5 13.1667 9.72385 13.1667 10V14.1667H14C14.2761 14.1667 14.5 14.3905 14.5 14.6667C14.5 14.9428 14.2761 15.1667 14 15.1667H2C1.72386 15.1667 1.5 14.9428 1.5 14.6667C1.5 14.3905 1.72386 14.1667 2 14.1667H2.83333V10C2.83333 9.72385 3.05719 9.5 3.33333 9.5C3.60948 9.5 3.83333 9.72385 3.83333 10V14.1667H12.1667V10C12.1667 9.72385 12.3905 9.5 12.6667 9.5Z" fill="#2D3142"/>
<path d="M11.0187 1.33333H4.98159C4.17971 1.33333 3.77877 1.33333 3.45657 1.53246C3.13436 1.73159 2.95506 2.0902 2.59645 2.80742L2.59645 2.80742L1.66071 5.17285C1.44451 5.71936 1.25535 6.36349 1.61928 6.82498C1.86342 7.13458 2.24188 7.33333 2.66677 7.33333C3.40315 7.33333 4.0001 6.73637 4.0001 6C4.0001 6.73637 4.59706 7.33333 5.33344 7.33333C6.06982 7.33333 6.66677 6.73637 6.66677 6C6.66677 6.73637 7.26373 7.33333 8.0001 7.33333C8.73648 7.33333 9.33344 6.73637 9.33344 6C9.33344 6.73637 9.93039 7.33333 10.6668 7.33333C11.4032 7.33333 12.0001 6.73637 12.0001 6C12.0001 6.73637 12.5971 7.33333 13.3334 7.33333C13.7583 7.33333 14.1368 7.13458 14.381 6.82497C14.7449 6.3635 14.5558 5.71936 14.3396 5.17285L13.4038 2.80742L13.4038 2.80741C13.0452 2.0902 12.8659 1.73159 12.5437 1.53246C12.2215 1.33333 11.8206 1.33333 11.0187 1.33333Z" fill="#2D3142"/>
</svg>
