<svg width="80" height="80" viewBox="0 0 80 80" fill="none" xmlns="http://www.w3.org/2000/svg">
<path d="M35.9559 49.115C35.5112 49.115 35.0436 49.0997 34.5529 49.069C34.0776 49.0537 33.6099 49.0307 33.1499 49C33.1499 47.3287 33.1499 45.6497 33.1499 43.963C33.1652 42.2764 33.1729 40.6587 33.1729 39.11C33.1882 37.5614 33.2036 36.1507 33.2189 34.878C33.2496 33.59 33.2802 32.509 33.3109 31.635C33.9089 31.5584 34.4916 31.5047 35.0589 31.474C35.6262 31.428 36.1782 31.405 36.7149 31.405C40.2416 31.405 42.9019 32.1334 44.6959 33.59C46.5052 35.0314 47.4099 37.1627 47.4099 39.984C47.4099 42.9587 46.4209 45.228 44.4429 46.792C42.4802 48.3407 39.6512 49.115 35.9559 49.115ZM37.2209 47.206C38.6776 47.206 39.8506 46.999 40.7399 46.585C41.6446 46.1557 42.3039 45.481 42.7179 44.561C43.1319 43.641 43.3389 42.422 43.3389 40.904C43.3389 38.4967 42.8482 36.672 41.8669 35.43C40.9009 34.188 39.3982 33.4674 37.3589 33.268C37.3436 33.682 37.3282 34.3107 37.3129 35.154C37.2976 35.982 37.2822 36.9327 37.2669 38.006C37.2669 39.064 37.2592 40.1604 37.2439 41.295C37.2439 42.4297 37.2362 43.5184 37.2209 44.561C37.2209 45.5884 37.2209 46.47 37.2209 47.206Z" fill="#242424"></path>
</svg>
