<svg width="16" height="16" viewBox="0 0 16 16" fill="none" xmlns="http://www.w3.org/2000/svg">
<g clip-path="url('#clip0_81_4191')">
<path d="M2.66699 6.66666C2.66699 4.15266 2.66699 2.89533 3.44833 2.11466C4.22899 1.33333 5.48633 1.33333 8.00033 1.33333C10.5143 1.33333 11.7717 1.33333 12.5523 2.11466C13.3337 2.89533 13.3337 4.15266 13.3337 6.66666V8C13.3337 10.514 13.3337 11.7713 12.5523 12.552C11.7717 13.3333 10.5143 13.3333 8.00033 13.3333C5.48633 13.3333 4.22899 13.3333 3.44833 12.552C2.66699 11.7713 2.66699 10.514 2.66699 8V6.66666Z" stroke="#242424" stroke-width="1.2"></path>
<path opacity="0.5" d="M2.66699 8.66666H13.3337" stroke="#242424" stroke-width="1.2" stroke-linecap="round" stroke-linejoin="round"></path>
<path d="M10.3337 10.6667H11.3337M4.66699 10.6667H5.66699" stroke="#242424" stroke-width="1.2" stroke-linecap="round" stroke-linejoin="round"></path>
<path opacity="0.5" d="M4.00016 13V14C4.00016 14.1768 4.0704 14.3464 4.19542 14.4714C4.32045 14.5964 4.49002 14.6667 4.66683 14.6667H5.66683C5.84364 14.6667 6.01321 14.5964 6.13823 14.4714C6.26326 14.3464 6.3335 14.1768 6.3335 14V13.3333M12.0002 13V14C12.0002 14.1768 11.9299 14.3464 11.8049 14.4714C11.6799 14.5964 11.5103 14.6667 11.3335 14.6667H10.3335C10.1567 14.6667 9.98712 14.5964 9.86209 14.4714C9.73707 14.3464 9.66683 14.1768 9.66683 14V13.3333M13.3335 6H14.0002C14.177 6 14.3465 6.07024 14.4716 6.19526C14.5966 6.32029 14.6668 6.48986 14.6668 6.66667V7.33333C14.6668 7.43683 14.6427 7.53891 14.5964 7.63148C14.5502 7.72405 14.483 7.80457 14.4002 7.86667L13.3335 8.66667M2.66683 6H2.00016C1.82335 6 1.65378 6.07024 1.52876 6.19526C1.40373 6.32029 1.3335 6.48986 1.3335 6.66667V7.33333C1.3335 7.43683 1.35759 7.53891 1.40388 7.63148C1.45016 7.72405 1.51737 7.80457 1.60016 7.86667L2.66683 8.66667" stroke="#242424" stroke-linecap="round" stroke-linejoin="round"></path>
<path opacity="0.5" d="M13 3.33333H3" stroke="#242424" stroke-width="1.2" stroke-linecap="round"></path>
</g>
<defs>
<clipPath id="clip0_81_4191">
<rect width="16" height="16" fill="white"></rect>
</clipPath>
</defs>
</svg>
