<svg width="16" height="16" viewBox="0 0 16 16" fill="none" xmlns="http://www.w3.org/2000/svg">
<g clip-path="url('#clip0_81_4186')">
<path d="M3.3335 5.33334C4.43807 5.33334 5.3335 4.43791 5.3335 3.33334C5.3335 2.22877 4.43807 1.33334 3.3335 1.33334C2.22893 1.33334 1.3335 2.22877 1.3335 3.33334C1.3335 4.43791 2.22893 5.33334 3.3335 5.33334Z" stroke="#242424" stroke-width="1.5"></path>
<path d="M12.667 14.6667C13.7716 14.6667 14.667 13.7712 14.667 12.6667C14.667 11.5621 13.7716 10.6667 12.667 10.6667C11.5624 10.6667 10.667 11.5621 10.667 12.6667C10.667 13.7712 11.5624 14.6667 12.667 14.6667Z" stroke="#242424" stroke-width="1.5"></path>
<path opacity="0.5" d="M7.33355 2.83334C7.20094 2.83334 7.07376 2.88601 6.98 2.97978C6.88623 3.07355 6.83355 3.20073 6.83355 3.33334C6.83355 3.46594 6.88623 3.59312 6.98 3.68689C7.07376 3.78066 7.20094 3.83334 7.33355 3.83334V2.83334ZM8.66688 12.6667L9.02022 13.02C9.11385 12.9263 9.16644 12.7992 9.16644 12.6667C9.16644 12.5342 9.11385 12.4071 9.02022 12.3133L8.66688 12.6667ZM8.02022 11.3133C7.92543 11.225 7.80007 11.1769 7.67053 11.1792C7.541 11.1815 7.41741 11.234 7.3258 11.3256C7.23419 11.4172 7.18172 11.5408 7.17943 11.6703C7.17715 11.7999 7.22523 11.9252 7.31355 12.02L8.02022 11.3133ZM7.31355 13.3133C7.22523 13.4081 7.17715 13.5335 7.17943 13.663C7.18172 13.7926 7.23419 13.9161 7.3258 14.0077C7.41741 14.0994 7.541 14.1518 7.67053 14.1541C7.80007 14.1564 7.92543 14.1083 8.02022 14.02L7.31355 13.3133ZM10.7549 2.83334H7.33355V3.83334H10.7549V2.83334ZM8.66688 12.1667H5.24555V13.1667H8.66688V12.1667ZM11.2022 5.37L4.26155 9.78667L4.79822 10.63L11.7389 6.21334L11.2022 5.37ZM9.02022 12.3133L8.02022 11.3133L7.31355 12.02L8.31355 13.02L9.02022 12.3133ZM8.31355 12.3133L7.31355 13.3133L8.02022 14.02L9.02022 13.02L8.31355 12.3133ZM5.24555 12.1667C4.41222 12.1667 4.09488 11.078 4.79822 10.63L4.26155 9.78667C2.71422 10.7713 3.41155 13.1667 5.24555 13.1667V12.1667ZM10.7549 3.83334C11.5882 3.83334 11.9055 4.922 11.2022 5.37L11.7389 6.21334C13.2862 5.22867 12.5889 2.83334 10.7549 2.83334V3.83334Z" fill="#242424"></path>
</g>
<defs>
<clipPath id="clip0_81_4186">
<rect width="16" height="16" fill="white"></rect>
</clipPath>
</defs>
</svg>
