<svg width="16" height="16" viewBox="0 0 16 16" fill="none" xmlns="http://www.w3.org/2000/svg">
<path d="M6.26676 6.93334C7.73952 6.93334 8.93343 5.73943 8.93343 4.26667C8.93343 2.79391 7.73952 1.60001 6.26676 1.60001C4.794 1.60001 3.6001 2.79391 3.6001 4.26667C3.6001 5.73943 4.794 6.93334 6.26676 6.93334Z" stroke="#242424" stroke-width="1.5"></path>
<path opacity="0.5" d="M8.6001 3.16068C8.83767 2.80274 9.18417 2.53082 9.58832 2.38516C9.99247 2.23949 10.4328 2.22783 10.8441 2.3519C11.2554 2.47597 11.6158 2.72918 11.872 3.07404C12.1281 3.4189 12.2665 3.83708 12.2665 4.26668C12.2665 4.69628 12.1281 5.11446 11.872 5.45932C11.6158 5.80418 11.2554 6.05738 10.8441 6.18145C10.4328 6.30552 9.99247 6.29386 9.58832 6.1482C9.18417 6.00254 8.83767 5.73061 8.6001 5.37268" stroke="#242424" stroke-width="1.2"></path>
<path d="M6.26676 14.2667C8.84409 14.2667 10.9334 13.0728 10.9334 11.6C10.9334 10.1272 8.84409 8.93333 6.26676 8.93333C3.68944 8.93333 1.6001 10.1272 1.6001 11.6C1.6001 13.0728 3.68944 14.2667 6.26676 14.2667Z" stroke="#242424" stroke-width="1.5"></path>
<path opacity="0.5" d="M12.2666 9.60001C13.4359 9.85667 14.2666 10.506 14.2666 11.2667C14.2666 11.9533 13.5906 12.5487 12.5999 12.8467" stroke="#242424" stroke-width="1.2" stroke-linecap="round"></path>
</svg>
