<svg width="24" height="25" viewBox="0 0 24 25" fill="none" xmlns="http://www.w3.org/2000/svg">
<path opacity="0.6" d="M15 2.5H14C11.172 2.5 9.757 2.5 8.879 3.379C8 4.257 8 5.672 8 8.5V16.5C8 19.328 8 20.743 8.879 21.621C9.757 22.5 11.172 22.5 14 22.5H15C17.828 22.5 19.243 22.5 20.121 21.621C21 20.743 21 19.328 21 16.5V8.5C21 5.672 21 4.257 20.121 3.379C19.243 2.5 17.828 2.5 15 2.5Z" fill="#242424"></path>
<path opacity="0.4" d="M8 8.5C8 6.962 8 5.843 8.141 5H8C5.643 5 4.464 5 3.732 5.732C3 6.464 3 7.643 3 10V15C3 17.357 3 18.535 3.732 19.268C4.464 20 5.643 20 8 20H8.141C8 19.157 8 18.038 8 16.5V11.75V8.5Z" fill="#242424"></path>
<path fill-rule="evenodd" clip-rule="evenodd" d="M14.53 11.97C14.6705 12.1106 14.7493 12.3013 14.7493 12.5C14.7493 12.6988 14.6705 12.8894 14.53 13.03L12.53 15.03C12.4613 15.1037 12.3785 15.1628 12.2865 15.2038C12.1945 15.2448 12.0952 15.2668 11.9945 15.2686C11.8938 15.2704 11.7938 15.2518 11.7004 15.2141C11.607 15.1764 11.5222 15.1203 11.451 15.049C11.3797 14.9778 11.3236 14.893 11.2859 14.7996C11.2482 14.7062 11.2296 14.6062 11.2314 14.5055C11.2332 14.4048 11.2552 14.3055 11.2962 14.2135C11.3372 14.1215 11.3963 14.0387 11.47 13.97L12.19 13.25H5C4.80109 13.25 4.61032 13.171 4.46967 13.0303C4.32902 12.8897 4.25 12.6989 4.25 12.5C4.25 12.3011 4.32902 12.1103 4.46967 11.9697C4.61032 11.829 4.80109 11.75 5 11.75H12.19L11.47 11.03C11.3963 10.9613 11.3372 10.8785 11.2962 10.7865C11.2552 10.6945 11.2332 10.5952 11.2314 10.4945C11.2296 10.3938 11.2482 10.2938 11.2859 10.2004C11.3236 10.107 11.3797 10.0222 11.451 9.95096C11.5222 9.87974 11.607 9.8236 11.7004 9.78588C11.7938 9.74816 11.8938 9.72963 11.9945 9.73141C12.0952 9.73319 12.1945 9.75523 12.2865 9.79622C12.3785 9.83721 12.4613 9.89631 12.53 9.97L14.53 11.97Z" fill="#242424"></path>
</svg>
