<svg width="16" height="16" viewBox="0 0 16 16" fill="none" xmlns="http://www.w3.org/2000/svg">
<path opacity="0.5" d="M1.3335 4.14C1.3335 2.81733 1.3335 2.15533 1.77283 1.74467C2.21216 1.33333 2.9195 1.33333 4.3335 1.33333C5.7475 1.33333 6.45483 1.33333 6.89416 1.74467C7.3335 2.15533 7.3335 2.81733 7.3335 4.14V11.86C7.3335 13.1827 7.3335 13.8447 6.89416 14.2553C6.45483 14.6667 5.7475 14.6667 4.3335 14.6667C2.9195 14.6667 2.21216 14.6667 1.77283 14.2553C1.3335 13.8447 1.3335 13.1827 1.3335 11.86V4.14Z" fill="#469B88"></path>
<path d="M8.6665 10.2667C8.6665 8.884 8.6665 8.19267 9.10584 7.76267C9.54517 7.33333 10.2525 7.33333 11.6665 7.33333C13.0805 7.33333 13.7878 7.33333 14.2272 7.76267C14.6665 8.19333 14.6665 8.884 14.6665 10.2667V11.7333C14.6665 13.116 14.6665 13.8073 14.2272 14.2373C13.7878 14.6667 13.0805 14.6667 11.6665 14.6667C10.2525 14.6667 9.54517 14.6667 9.10584 14.2373C8.6665 13.8067 8.6665 13.116 8.6665 11.7333V10.2667ZM8.6665 3.66667C8.6665 2.942 8.6665 2.58 8.7805 2.29333C8.92898 1.91636 9.22104 1.61376 9.5925 1.452C9.86784 1.33333 10.2178 1.33333 10.9165 1.33333H12.4165C13.1152 1.33333 13.4652 1.33333 13.7405 1.452C14.1078 1.60933 14.4005 1.912 14.5525 2.29333C14.6665 2.58 14.6665 2.942 14.6665 3.66667C14.6665 4.39133 14.6665 4.75333 14.5525 5.04C14.404 5.41697 14.112 5.71958 13.7405 5.88133C13.4652 6 13.1152 6 12.4165 6H10.9165C10.2178 6 9.86784 6 9.5925 5.88133C9.22104 5.71958 8.92898 5.41697 8.7805 5.04C8.6665 4.75333 8.6665 4.39133 8.6665 3.66667Z" fill="#469B88"></path>
</svg>
