<svg width="16" height="16" viewBox="0 0 16 16" fill="none" xmlns="http://www.w3.org/2000/svg">
<mask id="path-1-inside-1_147_708" fill="white">
<path d="M2 4.25731C2 3.93434 2.23025 3.67252 2.51429 3.67252L4.29045 3.67221C4.64335 3.66204 4.95468 3.40688 5.07476 3.02941C5.07792 3.01948 5.08155 3.00724 5.09457 2.96282L5.1711 2.7017C5.21793 2.5416 5.25874 2.40212 5.31583 2.27744C5.54139 1.7849 5.95872 1.44287 6.44098 1.35531C6.56305 1.33314 6.69232 1.33324 6.84071 1.33334H9.15941C9.30779 1.33324 9.43707 1.33314 9.55914 1.35531C10.0414 1.44287 10.4587 1.7849 10.6843 2.27744C10.7414 2.40212 10.7822 2.5416 10.829 2.7017L10.9055 2.96282C10.9186 3.00724 10.9222 3.01948 10.9254 3.02941C11.0454 3.40688 11.4185 3.66235 11.7714 3.67252H13.4857C13.7697 3.67252 14 3.93434 14 4.25731C14 4.58028 13.7697 4.8421 13.4857 4.8421H2.51429C2.23025 4.8421 2 4.58028 2 4.25731Z"></path>
</mask>
<path d="M2.51429 3.67252V4.67252H2.51446L2.51429 3.67252ZM6.84071 1.33334L6.83998 2.33334H6.84071V1.33334ZM9.15941 1.33334V2.33334L9.16013 2.33334L9.15941 1.33334ZM9.55914 1.35531L9.38048 2.33922L9.38048 2.33922L9.55914 1.35531ZM10.6843 2.27744L9.77509 2.69381V2.69381L10.6843 2.27744ZM10.829 2.7017L9.86924 2.98246L9.86938 2.98296L10.829 2.7017ZM10.9055 2.96282L9.94591 3.24408L9.94593 3.24412L10.9055 2.96282ZM10.9254 3.02941L9.9724 3.33253L9.97241 3.33256L10.9254 3.02941ZM11.7714 3.67252L11.7426 4.67211L11.757 4.67252H11.7714V3.67252ZM5.07476 3.02941L4.12182 2.72625L4.12182 2.72626L5.07476 3.02941ZM4.29045 3.67221L4.29062 4.67221L4.30494 4.6722L4.31925 4.67179L4.29045 3.67221ZM5.09457 2.96282L6.05419 3.24413L6.0542 3.24408L5.09457 2.96282ZM5.1711 2.7017L6.13073 2.98296L6.13088 2.98246L5.1711 2.7017ZM5.31583 2.27744L4.40664 1.86107L4.40663 1.86108L5.31583 2.27744ZM6.44098 1.35531L6.61963 2.33922V2.33922L6.44098 1.35531ZM2.51429 2.67252C1.56112 2.67252 1 3.50664 1 4.25731H3C3 4.33238 2.97328 4.42263 2.90155 4.50419C2.82813 4.58768 2.69334 4.67252 2.51429 4.67252V2.67252ZM15 4.25731C15 3.50663 14.4389 2.67252 13.4857 2.67252V4.67252C13.3067 4.67252 13.1719 4.58768 13.0984 4.50419C13.0267 4.42263 13 4.33238 13 4.25731H15ZM13.4857 5.8421C14.4389 5.8421 15 5.00799 15 4.25731H13C13 4.18224 13.0267 4.09199 13.0984 4.01043C13.1719 3.92694 13.3067 3.8421 13.4857 3.8421V5.8421ZM2.51429 5.8421H13.4857V3.8421H2.51429V5.8421ZM1 4.25731C1 5.00799 1.56112 5.8421 2.51429 5.8421V3.8421C2.69333 3.8421 2.82813 3.92694 2.90155 4.01043C2.97328 4.09199 3 4.18224 3 4.25731H1ZM9.73779 0.371395C9.51003 0.330039 9.28567 0.333251 9.15868 0.333343L9.16013 2.33334C9.23893 2.33329 9.28657 2.33341 9.32783 2.33512C9.34647 2.33589 9.35938 2.33684 9.36822 2.33771C9.37691 2.33857 9.38057 2.33923 9.38048 2.33922L9.73779 0.371395ZM11.5935 1.86107C11.2485 1.10786 10.5793 0.524195 9.73779 0.371395L9.38048 2.33922C9.50348 2.36155 9.6689 2.46194 9.77509 2.69381L11.5935 1.86107ZM11.7888 2.42094C11.747 2.27809 11.6866 2.06436 11.5935 1.86107L9.77509 2.69381C9.79618 2.73987 9.81736 2.80511 9.86924 2.98246L11.7888 2.42094ZM11.8783 2.72628C11.8795 2.72994 11.8798 2.73119 11.8777 2.72402C11.8754 2.71635 11.8718 2.70406 11.8652 2.68152L9.94593 3.24412C9.95734 3.28305 9.9649 3.30895 9.9724 3.33253L11.8783 2.72628ZM11.8002 2.67293C11.8266 2.67369 11.842 2.67851 11.8474 2.68044C11.8504 2.68156 11.8522 2.68245 11.853 2.68286C11.8538 2.68328 11.8541 2.68355 11.8544 2.68373C11.8544 2.68376 11.857 2.68554 11.8612 2.69115C11.8656 2.69716 11.8727 2.70871 11.8783 2.72626L9.97241 3.33256C10.2265 4.13139 10.9825 4.6502 11.7426 4.67211L11.8002 2.67293ZM4.12182 2.72626C4.11751 2.7398 4.11616 2.7314 4.13603 2.71512C4.15712 2.69783 4.20061 2.67438 4.26164 2.67262L4.31925 4.67179C5.16154 4.64752 5.79959 4.04964 6.0277 3.33256L4.12182 2.72626ZM4.13495 2.68151C4.12834 2.70406 4.12473 2.71635 4.12245 2.72402C4.12031 2.7312 4.12065 2.72994 4.12182 2.72625L6.0277 3.33256C6.03521 3.30896 6.04279 3.28301 6.05419 3.24413L4.13495 2.68151ZM4.40663 1.86108C4.31354 2.06437 4.25311 2.27809 4.21132 2.42095L6.13088 2.98246C6.18276 2.80511 6.20393 2.73987 6.22503 2.69381L4.40663 1.86108ZM6.26232 0.371395C5.4208 0.524195 4.75157 1.10786 4.40664 1.86107L6.22503 2.69381C6.33121 2.46194 6.49663 2.36155 6.61963 2.33922L6.26232 0.371395ZM6.84143 0.333343C6.71444 0.333251 6.49008 0.330039 6.26232 0.371395L6.61963 2.33922C6.61955 2.33923 6.62321 2.33857 6.63189 2.33771C6.64073 2.33684 6.65364 2.33589 6.67228 2.33512C6.71354 2.33341 6.76118 2.33329 6.83998 2.33334L6.84143 0.333343ZM4.29027 2.67221L2.51411 2.67252L2.51446 4.67252L4.29062 4.67221L4.29027 2.67221ZM11.7714 4.67252H13.4857V2.67252H11.7714V4.67252ZM9.15941 0.333343H6.84071V2.33334H9.15941V0.333343ZM11.8652 2.68156L11.7886 2.42044L9.86938 2.98296L9.94591 3.24408L11.8652 2.68156ZM4.21147 2.42044L4.13494 2.68156L6.0542 3.24408L6.13073 2.98296L4.21147 2.42044Z" fill="#E0533D" mask="url('#path-1-inside-1_147_708')"></path>
<path fill-rule="evenodd" clip-rule="evenodd" d="M6.28329 7.65434C6.55806 7.62542 6.80309 7.83644 6.83056 8.12567L7.1639 11.6344C7.19137 11.9237 6.9909 12.1816 6.71613 12.2105C6.44136 12.2394 6.19634 12.0284 6.16886 11.7392L5.83553 8.23041C5.80805 7.94118 6.00852 7.68326 6.28329 7.65434Z" fill="#E0533D"></path>
<path fill-rule="evenodd" clip-rule="evenodd" d="M9.71613 7.65434C9.9909 7.68326 10.1914 7.94118 10.1639 8.23041L9.83056 11.7392C9.80309 12.0284 9.55807 12.2394 9.28329 12.2105C9.00852 12.1816 8.80805 11.9237 8.83553 11.6344L9.16886 8.12567C9.19634 7.83644 9.44136 7.62542 9.71613 7.65434Z" fill="#E0533D"></path>
<g opacity="0.5">
<mask id="path-4-inside-2_147_708" fill="white">
<path d="M7.73008 14.6668H8.26927C10.1244 14.6668 11.052 14.6668 11.6551 14.0761C12.2582 13.4855 12.3199 12.5167 12.4433 10.5791L12.6211 7.78715C12.688 6.73583 12.7215 6.21016 12.419 5.87705C12.1164 5.54395 11.6055 5.54395 10.5836 5.54395H5.4157C4.39385 5.54395 3.88293 5.54395 3.58038 5.87705C3.27782 6.21016 3.3113 6.73583 3.37826 7.78716L3.55607 10.5791C3.67947 12.5167 3.74117 13.4855 4.34427 14.0761C4.94736 14.6668 5.87493 14.6668 7.73008 14.6668Z"></path>
</mask>
<path d="M12.4433 10.5791L11.4453 10.5155L12.4433 10.5791ZM3.55607 10.5791L2.55809 10.6426L3.55607 10.5791ZM4.34427 14.0761L5.04395 13.3617L4.34427 14.0761ZM3.37826 7.78716L4.37624 7.7236V7.7236L3.37826 7.78716ZM12.6211 7.78715L11.6231 7.7236V7.7236L12.6211 7.78715ZM7.73008 15.6668H8.26927V13.6668H7.73008V15.6668ZM13.4413 10.6426L13.6191 7.85071L11.6231 7.7236L11.4453 10.5155L13.4413 10.6426ZM2.38028 7.85071L2.55809 10.6426L4.55405 10.5155L4.37624 7.7236L2.38028 7.85071ZM8.26927 15.6668C9.16835 15.6668 9.94466 15.6689 10.5674 15.5837C11.223 15.4939 11.8424 15.2923 12.3548 14.7906L10.9554 13.3617C10.8647 13.4505 10.7188 13.5443 10.296 13.6022C9.84039 13.6646 9.22534 13.6668 8.26927 13.6668V15.6668ZM11.4453 10.5155C11.3819 11.5104 11.3385 12.1633 11.2467 12.6458C11.1594 13.1042 11.0518 13.2673 10.9554 13.3617L12.3548 14.7906C12.8614 14.2944 13.0862 13.6777 13.2114 13.0197C13.3321 12.3857 13.3812 11.5854 13.4413 10.6426L11.4453 10.5155ZM7.73008 13.6668C6.77401 13.6668 6.15896 13.6646 5.70331 13.6022C5.2806 13.5443 5.13469 13.4505 5.04395 13.3617L3.64459 14.7906C4.15694 15.2923 4.77636 15.4939 5.43199 15.5837C6.05469 15.6689 6.831 15.6668 7.73008 15.6668V13.6668ZM2.55809 10.6426C2.61813 11.5854 2.66726 12.3857 2.78792 13.0197C2.91314 13.6777 3.13791 14.2944 3.64459 14.7906L5.04395 13.3617C4.94753 13.2673 4.8399 13.1042 4.75265 12.6458C4.66083 12.1633 4.61741 11.5104 4.55405 10.5155L2.55809 10.6426ZM5.4157 6.54395H10.5836V4.54395H5.4157V6.54395ZM4.37624 7.7236C4.34096 7.16966 4.32297 6.85416 4.33836 6.63184C4.35198 6.43519 4.38375 6.47988 4.32062 6.54939L2.84013 5.20471C2.47445 5.60733 2.37168 6.08141 2.34314 6.4937C2.31637 6.88033 2.3486 7.35333 2.38028 7.85071L4.37624 7.7236ZM5.4157 4.54395C4.93488 4.54395 4.46767 4.54157 4.08774 4.59551C3.6756 4.65403 3.21029 4.79718 2.84013 5.20471L4.32062 6.54939C4.25302 6.62382 4.19444 6.60042 4.36887 6.57566C4.5755 6.54632 4.87468 6.54395 5.4157 6.54395V4.54395ZM13.6191 7.85071C13.6507 7.35332 13.683 6.88032 13.6562 6.4937C13.6277 6.08141 13.5249 5.60733 13.1592 5.20471L11.6787 6.54939C11.6156 6.47988 11.6474 6.43519 11.661 6.63184C11.6764 6.85416 11.6584 7.16965 11.6231 7.7236L13.6191 7.85071ZM10.5836 6.54395C11.1247 6.54395 11.4238 6.54632 11.6305 6.57566C11.8049 6.60042 11.7463 6.62382 11.6787 6.54939L13.1592 5.20471C12.7891 4.79718 12.3237 4.65403 11.9116 4.59551C11.5317 4.54157 11.0645 4.54395 10.5836 4.54395V6.54395Z" fill="#E0533D" mask="url('#path-4-inside-2_147_708')"></path>
</g>
</svg>
