<svg width="16" height="16" viewBox="0 0 16 16" fill="none" xmlns="http://www.w3.org/2000/svg">
<path d="M6.92334 8.8508C6.1004 8.85176 5.31369 9.17183 4.73518 9.73729C4.15713 10.3023 3.83406 11.0659 3.83301 11.8599V13.9648C3.83301 14.0146 3.85313 14.0647 3.89279 14.1035C3.93283 14.1426 3.98952 14.1666 4.05096 14.1666H11.9484C12.0098 14.1666 12.0665 14.1426 12.1066 14.1035C12.1462 14.0647 12.1663 14.0146 12.1663 13.9648L12.1663 11.8602L12.1663 11.8596M6.92334 8.8508L9.0766 8.3508C10.0283 8.35191 10.9407 8.72194 11.6137 9.37972C12.2866 10.0375 12.6652 10.9293 12.6663 11.8596H12.1663M6.92334 8.8508H9.07601M6.92334 8.8508H9.07601M12.1663 11.8596C12.1652 11.0657 11.8421 10.3022 11.2642 9.73729C10.6857 9.17183 9.89895 8.85176 9.07601 8.8508M12.1663 11.8596L9.07601 8.8508M10.7304 4.49115C10.7304 5.94837 9.51865 7.14904 7.99967 7.14904C6.4807 7.14904 5.26891 5.94837 5.26891 4.49115C5.26891 3.03392 6.4807 1.83325 7.99967 1.83325C9.51865 1.83325 10.7304 3.03392 10.7304 4.49115Z" fill="#6B7280" stroke="#6B7280"></path>
</svg>
