<svg width="462" height="492" viewBox="0 0 462 492" fill="none" xmlns="http://www.w3.org/2000/svg">
<path d="M2.23242 5.33368L57.606 27.1917V55.2427L51.4129 78.1936L31.7407 139.032L114.437 167.811C116.623 168.54 122.451 169.779 128.28 168.904C134.109 168.03 144.066 163.925 148.317 161.983H150.502L153.781 163.075L155.238 164.533L157.788 168.904L173.818 212.62L175.639 216.263L177.825 219.178L182.196 226.099L184.382 231.199L185.475 236.664L186.568 242.857L187.661 250.872L188.39 255.243L190.211 260.708L192.033 264.351L193.125 267.629V271.272V275.28L194.218 278.558L200.411 295.316L205.876 301.509L214.983 308.795L218.626 315.717L219.719 320.089L299.137 295.316L302.415 302.238L307.88 311.71L314.437 319.36L322.088 327.375L327.916 330.653L333.745 331.382L340.667 332.475L343.945 333.568L349.41 337.211L352.324 341.582L354.874 346.682L357.789 358.34L367.261 368.176L381.104 381.291L385.111 387.848L391.304 405.335L393.126 414.078L394.219 421.364V427.557L394.947 430.471L411.341 480.745L418.627 479.287H423.727L427.734 480.745L437.206 486.573H439.756L460.157 479.287" stroke="#E1EBF7" stroke-width="10.3959"></path>
</svg>
