<svg width="460" height="486" viewBox="0 0 460 486" fill="none" xmlns="http://www.w3.org/2000/svg">
<path d="M1.23242 2.33368L56.606 24.1917V52.2427L50.4129 75.1936L30.7407 136.032L113.437 164.811C115.623 165.54 121.451 166.779 127.28 165.904C133.109 165.03 143.066 160.925 147.317 158.983H149.502L152.781 160.075L154.238 161.533L156.788 165.904L172.818 209.62L174.639 213.263L176.825 216.178L181.196 223.099L183.382 228.199L184.475 233.664L185.568 239.857L186.661 247.872L187.39 252.243L189.211 257.708L191.033 261.351L192.125 264.629V268.272V272.28L193.218 275.558L199.411 292.316L204.876 298.509L213.983 305.795L217.626 312.717L218.719 317.089L298.137 292.316L301.415 299.238L306.88 308.71L313.437 316.36L321.088 324.375L326.916 327.653L332.745 328.382L339.667 329.475L342.945 330.568L348.41 334.211L351.324 338.582L353.874 343.682L356.789 355.34L366.261 365.176L380.104 378.291L384.111 384.848L390.304 402.335L392.126 411.078L393.219 418.364V424.557L393.947 427.471L410.341 477.745L417.627 476.287H422.727L426.734 477.745L436.206 483.573H438.756L459.157 476.287" stroke="#377CC8" stroke-width="3.19873"></path>
</svg>
