<svg width="31" height="31" viewBox="0 0 31 31" fill="none" xmlns="http://www.w3.org/2000/svg">
<circle cx="15.5" cy="15.5" r="15.5" fill="#EDF5F3" fill-opacity="0.6"></circle>
<path d="M21.7173 12.6081C20.9522 9.24193 18.016 7.72644 15.4367 7.72644C15.4367 7.72644 15.4367 7.72644 15.4295 7.72644C12.8575 7.72644 9.91396 9.23464 9.14893 12.6008C8.29647 16.3603 10.5988 19.5443 12.6826 21.548C13.455 22.2911 14.4458 22.6627 15.4367 22.6627C16.4276 22.6627 17.4185 22.2911 18.1836 21.548C20.2674 19.5443 22.5697 16.3676 21.7173 12.6081ZM15.4367 16.2583C14.169 16.2583 13.1417 15.231 13.1417 13.9633C13.1417 12.6955 14.169 11.6682 15.4367 11.6682C16.7045 11.6682 17.7318 12.6955 17.7318 13.9633C17.7318 15.231 16.7045 16.2583 15.4367 16.2583Z" fill="#377CC8"></path>
</svg>
